# xmcd CD database file
#
# Track frame offsets:
#	150
#	14170
#	26490
#	39305
#	47722
#	58125
#	72327
#	82922
#	100852
#	115517
#	126597
#
# Disc length: 1845 seconds
#
# Revision: 2
# Processed by: cddbd v1.4PL0 Copyright (c) Steve Scherf et al.
# Submitted via: CDex 1.40Release
#
DISCID=9107330b
DTITLE=SIMON and GARFUNKEL - 21 GRANDES EXITOS CD1
DYEAR=2001
DGENRE=Folk
TTITLE0=THE SOUNDS OF SILENCE
TTITLE1=HOMEWARD BOUND
TTITLE2=I AM A ROCK
TTITLE3=THE 59th STREET BRIDGE SONG (FEELIN"GROOVY)
TTITLE4=A HAZY SHADE OF WINTER
TTITLE5=SCARBOROUGUGH FAIR/CANTICLE
TTITLE6=AT THE ZOO
TTITLE7=MRS. ROBINSON (From Picture "The Graduate")
TTITLE8=FAKIN' IT
TTITLE9=FOR EMILY, WHENEVER I MAY FIND HER
TTITLE10=THE DANGLING CONVERSATION
EXTD=SIMON and GARFUNKEL YEAR: 2001 ID3G: 80
EXTT0=
EXTT1=
EXTT2=
EXTT3=
EXTT4=
EXTT5=
EXTT6=
EXTT7=
EXTT8=
EXTT9=
EXTT10=
PLAYORDER=
